<svg xmlns="http://www.w3.org/2000/svg" viewBox="0 0 1600 1000" role="img">
  <title>Accounting finance and HR management illustration</title>
  <defs>
    <linearGradient id="bg" x1="0" y1="0" x2="1" y2="1">
      <stop offset="0" stop-color="#111827"/>
      <stop offset=".55" stop-color="#1e3a5f"/>
      <stop offset="1" stop-color="#ef9f27"/>
    </linearGradient>
    <filter id="shadow" x="-20%" y="-20%" width="140%" height="140%">
      <feDropShadow dx="0" dy="28" stdDeviation="28" flood-color="#020617" flood-opacity=".36"/>
    </filter>
  </defs>
  <rect width="1600" height="1000" fill="url(#bg)"/>
  <g filter="url(#shadow)">
    <rect x="220" y="150" width="1160" height="700" rx="44" fill="#f8fafc"/>
    <rect x="278" y="220" width="454" height="560" rx="32" fill="#ffffff"/>
    <rect x="790" y="220" width="532" height="250" rx="32" fill="#e0f2fe"/>
    <rect x="790" y="520" width="532" height="260" rx="32" fill="#fffbeb"/>
  </g>
  <g>
    <rect x="336" y="306" width="210" height="28" rx="14" fill="#0f172a"/>
    <rect x="336" y="386" width="330" height="24" rx="12" fill="#cbd5e1"/>
    <rect x="336" y="386" width="250" height="24" rx="12" fill="#ef9f27"/>
    <rect x="336" y="458" width="330" height="24" rx="12" fill="#cbd5e1"/>
    <rect x="336" y="458" width="190" height="24" rx="12" fill="#2563eb"/>
    <rect x="336" y="530" width="330" height="24" rx="12" fill="#cbd5e1"/>
    <rect x="336" y="530" width="286" height="24" rx="12" fill="#22c55e"/>
    <rect x="336" y="642" width="118" height="72" rx="18" fill="#fef3c7"/>
    <rect x="486" y="642" width="118" height="72" rx="18" fill="#dcfce7"/>
  </g>
  <g fill="#0f172a">
    <rect x="860" y="300" width="220" height="22" rx="11"/>
    <rect x="860" y="358" width="390" height="18" rx="9" opacity=".54"/>
    <circle cx="920" cy="640" r="42" fill="#2563eb"/>
    <circle cx="1036" cy="640" r="42" fill="#ef9f27"/>
    <circle cx="1152" cy="640" r="42" fill="#22c55e"/>
    <rect x="850" y="706" width="360" height="20" rx="10" opacity=".56"/>
  </g>
</svg>
