<svg xmlns="http://www.w3.org/2000/svg" viewBox="0 0 1600 1000" role="img">
  <title>Digital workflow illustration</title>
  <defs>
    <linearGradient id="bg" x1="0" y1="0" x2="1" y2="1">
      <stop offset="0" stop-color="#082f49"/>
      <stop offset=".58" stop-color="#0f172a"/>
      <stop offset="1" stop-color="#ef9f27"/>
    </linearGradient>
    <filter id="shadow" x="-20%" y="-20%" width="140%" height="140%">
      <feDropShadow dx="0" dy="24" stdDeviation="28" flood-color="#020617" flood-opacity=".34"/>
    </filter>
  </defs>
  <rect width="1600" height="1000" fill="url(#bg)"/>
  <g opacity=".18" stroke="#fff" stroke-width="1">
    <path d="M180 120c280 120 520 130 860 30 160-48 290-28 410 56"/>
    <path d="M110 782c260-132 548-146 870-42 186 60 346 44 510-58"/>
  </g>
  <g filter="url(#shadow)">
    <rect x="210" y="194" width="1180" height="612" rx="42" fill="#f8fafc"/>
    <rect x="270" y="258" width="330" height="464" rx="30" fill="#e0f2fe"/>
    <rect x="670" y="258" width="660" height="464" rx="30" fill="#ffffff"/>
  </g>
  <g fill="#0f172a">
    <rect x="312" y="330" width="210" height="26" rx="13"/>
    <rect x="312" y="392" width="160" height="18" rx="9" opacity=".58"/>
    <rect x="312" y="438" width="228" height="18" rx="9" opacity=".58"/>
    <rect x="312" y="484" width="180" height="18" rx="9" opacity=".58"/>
  </g>
  <g fill="none" stroke-linecap="round" stroke-width="12">
    <path d="M756 388h170" stroke="#94a3b8"/>
    <path d="M1028 388h170" stroke="#94a3b8"/>
    <path d="M840 474v110h260" stroke="#94a3b8"/>
    <path d="M760 640h438" stroke="#94a3b8"/>
  </g>
  <g>
    <rect x="720" y="334" width="136" height="108" rx="24" fill="#dbeafe"/>
    <rect x="934" y="334" width="136" height="108" rx="24" fill="#fef3c7"/>
    <rect x="1148" y="334" width="136" height="108" rx="24" fill="#dcfce7"/>
    <rect x="720" y="586" width="136" height="108" rx="24" fill="#fae8ff"/>
    <rect x="1064" y="586" width="220" height="108" rx="24" fill="#ffedd5"/>
    <circle cx="788" cy="388" r="24" fill="#2563eb"/>
    <circle cx="1002" cy="388" r="24" fill="#ef9f27"/>
    <circle cx="1216" cy="388" r="24" fill="#22c55e"/>
    <circle cx="788" cy="640" r="24" fill="#a855f7"/>
    <circle cx="1130" cy="640" r="24" fill="#f97316"/>
  </g>
</svg>
