<svg xmlns="http://www.w3.org/2000/svg" viewBox="0 0 1600 1000" role="img">
  <title>Institutional governance illustration</title>
  <defs>
    <linearGradient id="bg" x1="0" y1="0" x2="1" y2="1">
      <stop offset="0" stop-color="#111827"/>
      <stop offset=".62" stop-color="#1f2937"/>
      <stop offset="1" stop-color="#d68114"/>
    </linearGradient>
    <filter id="shadow" x="-20%" y="-20%" width="140%" height="140%">
      <feDropShadow dx="0" dy="26" stdDeviation="26" flood-color="#020617" flood-opacity=".34"/>
    </filter>
  </defs>
  <rect width="1600" height="1000" fill="url(#bg)"/>
  <circle cx="1260" cy="190" r="250" fill="#fbbf24" opacity=".12"/>
  <circle cx="330" cy="830" r="260" fill="#38bdf8" opacity=".08"/>
  <g opacity=".16" stroke="#fff" stroke-width="2">
    <path d="M180 190h1240M180 310h1240M180 430h1240M180 550h1240M180 670h1240"/>
  </g>
  <g filter="url(#shadow)">
    <path d="M800 150 1230 350H370Z" fill="#f8fafc"/>
    <rect x="420" y="372" width="760" height="62" rx="20" fill="#e2e8f0"/>
    <rect x="410" y="742" width="780" height="80" rx="24" fill="#f8fafc"/>
    <rect x="470" y="456" width="88" height="260" rx="20" fill="#ffffff"/>
    <rect x="630" y="456" width="88" height="260" rx="20" fill="#ffffff"/>
    <rect x="790" y="456" width="88" height="260" rx="20" fill="#ffffff"/>
    <rect x="950" y="456" width="88" height="260" rx="20" fill="#ffffff"/>
    <rect x="1110" y="456" width="88" height="260" rx="20" fill="#ffffff"/>
  </g>
  <g fill="none" stroke-linecap="round" stroke-width="16">
    <path d="M528 540h-140a86 86 0 0 0-86 86v76" stroke="#ef9f27"/>
    <path d="M674 540v-96" stroke="#2563eb"/>
    <path d="M834 540h150a92 92 0 0 1 92 92v70" stroke="#22c55e"/>
  </g>
  <g filter="url(#shadow)">
    <rect x="230" y="694" width="210" height="112" rx="24" fill="#ffffff"/>
    <rect x="696" y="246" width="210" height="112" rx="24" fill="#ffffff"/>
    <rect x="1162" y="694" width="210" height="112" rx="24" fill="#ffffff"/>
  </g>
  <rect x="270" y="736" width="130" height="20" rx="10" fill="#0f172a"/>
  <rect x="736" y="288" width="130" height="20" rx="10" fill="#0f172a"/>
  <rect x="1202" y="736" width="130" height="20" rx="10" fill="#0f172a"/>
</svg>
