<svg xmlns="http://www.w3.org/2000/svg" viewBox="0 0 1600 1000" role="img">
  <title>Project governance dashboard illustration</title>
  <defs>
    <linearGradient id="bg" x1="0" y1="0" x2="1" y2="1">
      <stop offset="0" stop-color="#0f172a"/>
      <stop offset=".56" stop-color="#1e3a5f"/>
      <stop offset="1" stop-color="#ef9f27"/>
    </linearGradient>
    <linearGradient id="panel" x1="0" y1="0" x2="1" y2="1">
      <stop offset="0" stop-color="#ffffff" stop-opacity=".94"/>
      <stop offset="1" stop-color="#e2e8f0" stop-opacity=".86"/>
    </linearGradient>
    <filter id="shadow" x="-20%" y="-20%" width="140%" height="140%">
      <feDropShadow dx="0" dy="28" stdDeviation="30" flood-color="#020617" flood-opacity=".35"/>
    </filter>
  </defs>
  <rect width="1600" height="1000" fill="url(#bg)"/>
  <g opacity=".18" stroke="#fff" stroke-width="1">
    <path d="M0 170h1600M0 330h1600M0 490h1600M0 650h1600M0 810h1600"/>
    <path d="M160 0v1000M320 0v1000M480 0v1000M640 0v1000M800 0v1000M960 0v1000M1120 0v1000M1280 0v1000M1440 0v1000"/>
  </g>
  <circle cx="1320" cy="160" r="220" fill="#fff" opacity=".08"/>
  <circle cx="260" cy="820" r="260" fill="#ef9f27" opacity=".14"/>
  <g filter="url(#shadow)">
    <rect x="190" y="150" width="1220" height="700" rx="44" fill="url(#panel)"/>
    <rect x="230" y="196" width="1140" height="92" rx="24" fill="#0f172a"/>
    <circle cx="284" cy="242" r="16" fill="#ef9f27"/>
    <circle cx="332" cy="242" r="16" fill="#38bdf8"/>
    <rect x="390" y="228" width="280" height="28" rx="14" fill="#f8fafc" opacity=".9"/>
    <rect x="1010" y="224" width="270" height="36" rx="18" fill="#ef9f27"/>
    <rect x="248" y="334" width="320" height="430" rx="30" fill="#f8fafc"/>
    <rect x="622" y="334" width="710" height="430" rx="30" fill="#f8fafc"/>
  </g>
  <g fill="none" stroke-linecap="round" stroke-width="18">
    <path d="M298 438h194" stroke="#0f172a"/>
    <path d="M298 500h142" stroke="#64748b"/>
    <path d="M298 562h210" stroke="#64748b"/>
    <path d="M298 624h118" stroke="#64748b"/>
    <path d="M298 686h176" stroke="#ef9f27"/>
  </g>
  <g>
    <rect x="690" y="404" width="160" height="72" rx="18" fill="#dbeafe"/>
    <rect x="900" y="404" width="170" height="72" rx="18" fill="#fef3c7"/>
    <rect x="1120" y="404" width="150" height="72" rx="18" fill="#dcfce7"/>
    <path d="M850 440h50M1070 440h50" stroke="#94a3b8" stroke-width="12" stroke-linecap="round"/>
    <rect x="690" y="558" width="230" height="28" rx="14" fill="#0f172a"/>
    <rect x="690" y="618" width="520" height="28" rx="14" fill="#cbd5e1"/>
    <rect x="690" y="618" width="360" height="28" rx="14" fill="#ef9f27"/>
    <rect x="690" y="680" width="520" height="28" rx="14" fill="#cbd5e1"/>
    <rect x="690" y="680" width="238" height="28" rx="14" fill="#2563eb"/>
  </g>
</svg>
