<svg xmlns="http://www.w3.org/2000/svg" viewBox="0 0 1600 1000" role="img">
  <title>Software architecture illustration</title>
  <defs>
    <linearGradient id="bg" x1="0" y1="0" x2="1" y2="1">
      <stop offset="0" stop-color="#020617"/>
      <stop offset=".6" stop-color="#172554"/>
      <stop offset="1" stop-color="#ef9f27"/>
    </linearGradient>
    <filter id="shadow" x="-20%" y="-20%" width="140%" height="140%">
      <feDropShadow dx="0" dy="30" stdDeviation="30" flood-color="#020617" flood-opacity=".42"/>
    </filter>
  </defs>
  <rect width="1600" height="1000" fill="url(#bg)"/>
  <circle cx="1230" cy="220" r="230" fill="#38bdf8" opacity=".11"/>
  <circle cx="310" cy="820" r="260" fill="#ef9f27" opacity=".14"/>
  <g filter="url(#shadow)">
    <rect x="230" y="160" width="1140" height="680" rx="42" fill="#0f172a"/>
    <rect x="270" y="212" width="1060" height="70" rx="22" fill="#1e293b"/>
    <rect x="270" y="318" width="480" height="474" rx="28" fill="#111827"/>
    <rect x="790" y="318" width="540" height="474" rx="28" fill="#f8fafc"/>
  </g>
  <circle cx="318" cy="247" r="12" fill="#ef4444"/>
  <circle cx="358" cy="247" r="12" fill="#f59e0b"/>
  <circle cx="398" cy="247" r="12" fill="#22c55e"/>
  <g font-family="ui-monospace, SFMono-Regular, Menlo, monospace" font-size="34" font-weight="700">
    <text x="318" y="398" fill="#38bdf8">&lt;module&gt;</text>
    <text x="318" y="464" fill="#f8fafc">workflow.connect()</text>
    <text x="318" y="530" fill="#ef9f27">data.validate()</text>
    <text x="318" y="596" fill="#f8fafc">api.publish()</text>
    <text x="318" y="662" fill="#38bdf8">&lt;/module&gt;</text>
  </g>
  <g>
    <rect x="858" y="390" width="190" height="130" rx="26" fill="#dbeafe"/>
    <rect x="1082" y="390" width="190" height="130" rx="26" fill="#fef3c7"/>
    <rect x="858" y="586" width="190" height="130" rx="26" fill="#dcfce7"/>
    <rect x="1082" y="586" width="190" height="130" rx="26" fill="#ffedd5"/>
    <path d="M1048 455h34M953 520v66M1177 520v66M1048 651h34" stroke="#64748b" stroke-width="14" stroke-linecap="round"/>
    <rect x="904" y="438" width="96" height="20" rx="10" fill="#0f172a"/>
    <rect x="1128" y="438" width="96" height="20" rx="10" fill="#0f172a"/>
    <rect x="904" y="634" width="96" height="20" rx="10" fill="#0f172a"/>
    <rect x="1128" y="634" width="96" height="20" rx="10" fill="#0f172a"/>
  </g>
</svg>
