<svg xmlns="http://www.w3.org/2000/svg" viewBox="0 0 1600 1000" role="img">
  <title>Socio-economic studies and survey analysis illustration</title>
  <defs>
    <linearGradient id="bg" x1="0" y1="0" x2="1" y2="1">
      <stop offset="0" stop-color="#0f172a"/>
      <stop offset=".62" stop-color="#1e40af"/>
      <stop offset="1" stop-color="#ef9f27"/>
    </linearGradient>
    <filter id="shadow" x="-20%" y="-20%" width="140%" height="140%">
      <feDropShadow dx="0" dy="26" stdDeviation="28" flood-color="#020617" flood-opacity=".36"/>
    </filter>
  </defs>
  <rect width="1600" height="1000" fill="url(#bg)"/>
  <g opacity=".16" fill="none" stroke="#fff" stroke-width="2">
    <path d="M220 250h1160M220 410h1160M220 570h1160M220 730h1160"/>
    <path d="M360 140v720M560 140v720M760 140v720M960 140v720M1160 140v720"/>
  </g>
  <g filter="url(#shadow)">
    <rect x="240" y="160" width="430" height="690" rx="42" fill="#f8fafc"/>
    <rect x="760" y="190" width="600" height="290" rx="38" fill="#ffffff"/>
    <rect x="760" y="540" width="600" height="260" rx="38" fill="#ffffff"/>
  </g>
  <rect x="330" y="230" width="250" height="34" rx="17" fill="#0f172a"/>
  <g fill="none" stroke-linecap="round" stroke-width="14">
    <path d="M330 350h250" stroke="#cbd5e1"/>
    <path d="M330 432h208" stroke="#cbd5e1"/>
    <path d="M330 514h272" stroke="#cbd5e1"/>
    <path d="M330 596h230" stroke="#cbd5e1"/>
    <path d="M330 678h184" stroke="#cbd5e1"/>
  </g>
  <g fill="#ef9f27">
    <circle cx="300" cy="350" r="14"/>
    <circle cx="300" cy="432" r="14"/>
    <circle cx="300" cy="514" r="14"/>
    <circle cx="300" cy="596" r="14"/>
    <circle cx="300" cy="678" r="14"/>
  </g>
  <polyline points="832,414 932,330 1032,372 1134,276 1276,334" fill="none" stroke="#2563eb" stroke-width="18" stroke-linecap="round" stroke-linejoin="round"/>
  <rect x="838" y="620" width="92" height="112" rx="18" fill="#dbeafe"/>
  <rect x="966" y="590" width="92" height="142" rx="18" fill="#fef3c7"/>
  <rect x="1094" y="650" width="92" height="82" rx="18" fill="#dcfce7"/>
  <rect x="1222" y="570" width="92" height="162" rx="18" fill="#ffedd5"/>
</svg>
