<svg xmlns="http://www.w3.org/2000/svg" viewBox="0 0 1600 1000" role="img">
  <title>Training and capacity building illustration</title>
  <defs>
    <linearGradient id="bg" x1="0" y1="0" x2="1" y2="1">
      <stop offset="0" stop-color="#111827"/>
      <stop offset=".58" stop-color="#1e3a5f"/>
      <stop offset="1" stop-color="#ef9f27"/>
    </linearGradient>
    <filter id="shadow" x="-20%" y="-20%" width="140%" height="140%">
      <feDropShadow dx="0" dy="26" stdDeviation="28" flood-color="#020617" flood-opacity=".34"/>
    </filter>
  </defs>
  <rect width="1600" height="1000" fill="url(#bg)"/>
  <circle cx="1280" cy="180" r="240" fill="#fbbf24" opacity=".12"/>
  <circle cx="300" cy="780" r="270" fill="#38bdf8" opacity=".1"/>
  <g filter="url(#shadow)">
    <rect x="250" y="170" width="650" height="470" rx="42" fill="#f8fafc"/>
    <rect x="970" y="230" width="360" height="500" rx="42" fill="#ffffff"/>
    <rect x="330" y="710" width="560" height="86" rx="24" fill="#e2e8f0"/>
  </g>
  <rect x="310" y="238" width="530" height="330" rx="28" fill="#0f172a"/>
  <rect x="370" y="308" width="240" height="26" rx="13" fill="#38bdf8"/>
  <rect x="370" y="376" width="400" height="20" rx="10" fill="#e2e8f0" opacity=".7"/>
  <rect x="370" y="430" width="300" height="20" rx="10" fill="#fbbf24"/>
  <rect x="1030" y="300" width="238" height="32" rx="16" fill="#0f172a"/>
  <rect x="1030" y="392" width="238" height="24" rx="12" fill="#cbd5e1"/>
  <rect x="1030" y="456" width="180" height="24" rx="12" fill="#cbd5e1"/>
  <rect x="1030" y="560" width="238" height="92" rx="22" fill="#fef3c7"/>
  <path d="m1110 604 38 38 82-96" fill="none" stroke="#22c55e" stroke-width="18" stroke-linecap="round" stroke-linejoin="round"/>
  <g fill="#ef9f27">
    <circle cx="430" cy="754" r="28"/>
    <circle cx="548" cy="754" r="28"/>
    <circle cx="666" cy="754" r="28"/>
    <circle cx="784" cy="754" r="28"/>
  </g>
</svg>
